<svg width="1600" height="480" viewBox="0 0 1600 480" fill="none" xmlns="http://www.w3.org/2000/svg">
  <defs>
    <linearGradient id="bg" x1="1600" y1="0" x2="0" y2="480" gradientUnits="userSpaceOnUse">
      <stop offset="0" stop-color="#0B1020"/>
      <stop offset="0.4" stop-color="#1D4ED8"/>
      <stop offset="1" stop-color="#0EA5E9"/>
    </linearGradient>
    <linearGradient id="accent" x1="0" y1="0" x2="1" y2="1">
      <stop offset="0" stop-color="#A78BFA"/>
      <stop offset="1" stop-color="#22D3EE"/>
    </linearGradient>
  </defs>

  <rect width="1600" height="480" rx="26" fill="url(#bg)"/>
  <path d="M0 420C240 340 410 500 660 420C910 340 1110 220 1600 330V480H0V420Z" fill="#020617" opacity="0.28"/>

  <g opacity="0.35">
    <circle cx="1250" cy="108" r="120" fill="#93C5FD"/>
    <circle cx="1335" cy="145" r="55" fill="#22D3EE"/>
  </g>

  <rect x="72" y="88" width="130" height="130" rx="30" fill="#0F172A" opacity="0.5"/>
  <rect x="94" y="110" width="86" height="86" rx="22" fill="url(#accent)"/>
  <circle cx="137" cy="153" r="22" fill="#0B1020" opacity="0.6"/>
  <circle cx="137" cy="153" r="11" fill="#F8FAFC" opacity="0.95"/>

  <text x="232" y="170" fill="white" font-family="Segoe UI, Arial, sans-serif" font-size="84" font-weight="700">LukaScope</text>
  <text x="232" y="226" fill="#E0E7FF" font-family="Segoe UI, Arial, sans-serif" font-size="34" font-weight="500">AI-Assisted Blood Smear Analysis</text>

  <rect x="232" y="268" width="492" height="56" rx="14" fill="white" opacity="0.14"/>
  <text x="260" y="305" fill="#F1F5F9" font-family="Segoe UI, Arial, sans-serif" font-size="26">Frontend + Backend Monorepo (Bun)</text>

  <rect x="742" y="268" width="434" height="56" rx="14" fill="#111827" opacity="0.45"/>
  <text x="770" y="305" fill="#E2E8F0" font-family="Segoe UI, Arial, sans-serif" font-size="26">Scalable Foundation for Clinical AI</text>

  <text x="232" y="374" fill="#BFDBFE" font-family="Segoe UI, Arial, sans-serif" font-size="24" font-weight="500">Upload • Analyze • Explain • Review</text>
</svg>
